<?xml version="1.0" standalone="no"?>
<!DOCTYPE svg PUBLIC "-//W3C//DTD SVG 20010904//EN"
 "http://www.w3.org/TR/2001/REC-SVG-20010904/DTD/svg10.dtd">
<svg version="1.0" xmlns="http://www.w3.org/2000/svg"
 width="300.000000pt" height="300.000000pt" viewBox="0 0 300.000000 300.000000"
 preserveAspectRatio="xMidYMid meet">
<metadata>
Created by potrace 1.11, written by Peter Selinger 2001-2013
</metadata>
<g transform="translate(0.000000,300.000000) scale(0.100000,-0.100000)"
fill="#000000" stroke="none">
<path d="M797 2827 c-12 -9 -16 -44 -20 -163 -5 -154 0 -184 31 -184 38 0 42
19 42 182 0 143 -2 158 -19 167 -13 7 -23 7 -34 -2z"/>
<path d="M1742 2818 c-7 -7 -12 -40 -12 -80 0 -62 -2 -68 -20 -68 -38 0 -89
-28 -104 -59 -23 -44 -20 -69 14 -103 28 -28 35 -30 83 -25 42 4 56 10 77 35
l26 31 27 -27 c22 -21 31 -25 45 -16 33 21 26 51 -23 99 -53 54 -55 78 -6 85
37 6 58 28 48 54 -5 11 -19 16 -52 16 -40 0 -45 2 -45 23 0 24 -17 47 -35 47
-6 0 -16 -5 -23 -12z m-12 -238 c0 -16 -41 -33 -52 -22 -6 6 -7 15 -4 21 9 14
56 15 56 1z"/>
<path d="M1017 2790 c-11 -28 -14 -29 -77 -32 -65 -3 -65 -3 -65 -33 0 -30 0
-30 65 -33 80 -4 98 -17 36 -26 -56 -9 -94 -40 -102 -83 -6 -28 -1 -38 29 -68
30 -30 42 -35 80 -35 38 0 49 5 71 31 14 17 26 37 26 45 0 11 10 14 36 12 69
-6 73 56 5 76 -38 11 -40 33 -5 46 32 12 30 50 -3 65 -13 5 -23 17 -23 25 0
46 -57 54 -73 10z m-9 -217 c-4 -20 -27 -27 -47 -14 -19 12 -4 31 25 31 19 0
25 -5 22 -17z"/>
<path d="M1455 2776 c-20 -14 -20 -15 5 -86 27 -78 46 -97 76 -76 17 13 18 18
6 63 -14 53 -41 104 -57 110 -6 2 -20 -3 -30 -11z"/>
<path d="M1235 2740 c-10 -30 3 -107 26 -160 42 -96 91 -115 148 -56 35 36 37
62 9 80 -13 8 -22 5 -41 -12 -34 -32 -47 -12 -74 123 -7 33 -13 41 -35 43 -20
2 -28 -2 -33 -18z"/>
<path d="M402 2738 c-7 -7 -12 -18 -12 -25 0 -16 170 -272 194 -292 20 -17 49
-5 54 23 3 15 -169 282 -192 298 -16 11 -30 10 -44 -4z"/>
<path d="M2543 2728 c-46 -52 -184 -268 -181 -284 5 -28 33 -40 54 -23 24 20
194 276 194 292 0 16 -20 37 -35 37 -6 0 -21 -10 -32 -22z"/>
<path d="M2043 2689 c-19 -19 -16 -47 6 -59 11 -5 72 -10 135 -10 102 0 116 2
125 19 7 13 6 23 -3 36 -11 15 -33 19 -132 22 -90 4 -122 2 -131 -8z"/>
<path d="M93 2510 c-36 -15 -59 -76 -83 -225 -19 -119 25 -415 79 -530 30 -64
119 -194 172 -250 l29 -31 -63 -41 c-34 -23 -93 -70 -130 -104 -55 -50 -68
-66 -65 -88 2 -17 11 -29 29 -35 21 -7 49 2 163 54 75 34 139 61 140 59 2 -2
0 -26 -4 -54 -5 -27 -9 -110 -9 -183 -1 -126 0 -134 22 -156 13 -13 29 -25 35
-27 18 -6 -9 -102 -52 -187 -65 -129 -81 -225 -51 -313 21 -61 70 -119 100
-119 31 0 41 20 50 95 13 100 21 105 28 15 11 -140 41 -161 232 -164 111 -1
121 -3 138 -23 10 -13 35 -27 55 -33 64 -17 207 -24 242 -12 25 9 36 8 56 -4
18 -12 41 -15 89 -12 l65 4 5 -31 c3 -16 6 -48 7 -70 l3 -40 165 -3 c95 -2
190 2 224 8 42 8 62 8 69 1 16 -16 32 -13 18 2 -13 16 -5 27 20 27 10 0 21 -9
24 -20 5 -16 15 -20 52 -20 39 0 44 2 38 18 -17 40 -15 48 18 70 52 35 91 42
229 42 l127 0 12 -40 c11 -37 10 -42 -11 -65 l-23 -25 56 0 c50 0 58 3 77 30
28 39 47 131 34 167 -14 42 -52 51 -121 28 -42 -14 -90 -19 -178 -20 -137 -2
-185 -13 -243 -54 l-40 -30 -56 56 c-31 31 -56 62 -56 70 0 12 3 12 16 -1 25
-26 52 -28 193 -12 109 12 138 19 156 36 20 19 23 20 29 4 6 -15 18 -16 109
-11 121 7 201 29 222 60 8 13 23 74 33 137 16 92 21 109 27 87 4 -16 5 -58 2
-94 -6 -83 12 -133 47 -133 52 0 145 146 166 258 14 81 3 143 -61 328 -49 143
-71 244 -52 244 5 0 24 -16 43 -35 38 -39 67 -44 101 -16 l24 20 -25 48 c-14
26 -55 80 -92 118 -64 68 -68 75 -89 160 l-22 88 29 20 c137 96 226 285 244
516 12 149 -9 260 -57 313 -28 31 -47 28 -428 -79 -49 -13 -150 -47 -222 -74
l-133 -49 -99 20 c-112 23 -276 27 -344 8 -37 -9 -55 -9 -106 6 -97 27 -184
30 -303 12 -117 -19 -277 -59 -322 -81 -28 -15 -30 -14 -95 44 -218 192 -363
271 -574 312 -110 21 -104 21 -134 9z m245 -115 c136 -43 283 -141 448 -299
92 -89 110 -116 78 -116 -9 0 -46 -15 -83 -33 l-68 -34 -73 111 c-81 121 -222
272 -329 350 -35 25 -61 46 -58 46 3 0 41 -11 85 -25z m-178 -15 c44 -23 160
-108 207 -153 l32 -30 -77 -26 c-69 -23 -77 -29 -77 -51 0 -18 9 -29 32 -40
18 -8 33 -17 33 -20 0 -3 -14 -13 -30 -22 -17 -9 -30 -24 -30 -32 0 -20 35
-42 79 -51 l34 -7 -26 -16 c-58 -35 -36 -72 42 -72 l46 -1 -22 -18 c-34 -28
-29 -49 16 -62 34 -10 38 -14 29 -29 -16 -25 -4 -47 31 -55 l30 -6 -40 -82
c-38 -80 -58 -100 -89 -89 -89 30 -234 246 -264 392 -26 127 -39 261 -33 340
6 72 23 150 33 150 3 0 22 -9 44 -20z m2460 -105 c0 -2 -30 -21 -66 -41 -79
-44 -192 -128 -289 -213 -60 -54 -239 -171 -260 -171 -4 0 -28 15 -54 34 -25
18 -68 46 -94 61 l-48 27 36 25 c81 55 579 237 773 282 1 1 2 -1 2 -4z m218
-93 c11 -198 -57 -418 -161 -520 -54 -52 -148 -109 -213 -128 l-52 -15 -98 39
c-55 22 -107 42 -116 45 -10 4 -18 13 -18 21 0 13 7 12 43 -4 81 -37 135 -16
87 35 l-22 24 56 -2 c72 -1 85 11 52 50 l-26 31 31 6 c18 3 46 6 65 6 40 0 84
16 84 30 0 6 -14 23 -30 39 l-30 27 49 18 c53 19 84 45 73 62 -4 6 -29 17 -56
24 l-49 14 52 25 c69 34 67 57 -9 81 l-55 16 50 33 c92 59 267 143 278 132 6
-6 12 -46 15 -89z m-2365 -61 c19 -22 67 -87 107 -146 l71 -106 -56 -61 c-30
-34 -55 -65 -55 -70 0 -4 -15 -8 -32 -8 l-33 1 29 23 c42 34 30 56 -31 56
l-48 1 28 17 c30 18 36 47 11 56 -9 3 -33 6 -54 6 -50 0 -57 12 -19 34 44 26
34 47 -29 61 -29 7 -55 15 -58 18 -3 3 9 13 28 23 61 31 57 52 -13 73 -48 15
-43 24 26 44 76 23 89 21 128 -22z m1032 19 c62 -18 77 -19 125 -8 58 13 271
15 290 3 7 -4 -17 -21 -59 -42 -39 -19 -86 -48 -104 -66 -31 -31 -34 -32 -85
-23 -43 7 -56 6 -69 -6 -29 -30 -8 -56 55 -68 99 -20 148 -39 223 -91 91 -62
120 -89 170 -156 l39 -53 -20 -20 c-36 -36 -23 -51 67 -74 87 -22 133 -42 133
-60 0 -12 -8 -12 -62 1 -35 8 -81 16 -103 17 -38 1 -40 -1 -40 -29 0 -27 4
-30 55 -45 54 -16 55 -16 72 -72 31 -102 41 -239 31 -400 -6 -86 -15 -154 -22
-162 -28 -33 -236 -51 -247 -21 -3 8 -1 61 5 117 6 57 12 146 13 198 l3 95
-27 3 c-33 4 -40 -11 -58 -109 -6 -34 -26 -90 -43 -123 l-32 -61 -7 170 c-6
162 -42 417 -69 504 -7 20 -13 42 -15 49 -4 15 -36 16 -52 0 -7 -7 -12 -33
-12 -59 0 -73 -17 -145 -51 -216 -35 -73 -43 -71 -52 14 -7 58 -40 177 -67
238 -9 22 -20 48 -23 58 -8 21 -53 23 -61 1 -3 -9 -6 -83 -6 -165 0 -110 -4
-159 -15 -185 -16 -38 -72 -114 -84 -114 -4 0 -13 16 -19 34 -13 35 -37 51
-64 41 -8 -3 -34 -53 -57 -110 -24 -58 -46 -105 -51 -105 -4 0 -31 48 -61 108
-41 81 -59 108 -76 110 -14 2 -26 -4 -33 -17 -6 -12 -14 -21 -19 -21 -23 0
-53 199 -49 325 3 80 3 80 -23 83 -22 3 -29 -2 -38 -29 -6 -18 -11 -40 -11
-50 0 -10 -23 -49 -50 -87 -53 -73 -89 -152 -111 -242 -23 -99 -32 -82 -27 55
3 72 3 136 1 143 -3 6 -15 12 -28 12 -40 0 -48 -32 -48 -175 1 -149 24 -278
55 -311 13 -15 18 -32 16 -50 -4 -26 -7 -23 -36 38 -19 39 -36 98 -42 140 -10
67 -14 224 -8 308 2 28 -1 37 -19 45 -13 5 -23 15 -23 21 0 6 29 70 65 142 49
97 80 145 119 185 80 81 177 130 300 151 75 13 100 32 77 60 -8 9 -26 16 -42
16 -21 0 -34 9 -54 37 l-25 38 52 18 c29 10 105 29 168 42 148 30 270 32 365
5z m1006 -77 l42 -16 -47 -24 c-58 -30 -58 -52 2 -73 23 -8 42 -17 42 -20 0
-3 -23 -14 -52 -25 -28 -11 -53 -26 -55 -32 -3 -7 7 -23 21 -37 32 -29 21 -36
-59 -36 -29 0 -60 -3 -69 -6 -21 -8 -20 -33 1 -56 23 -26 10 -33 -42 -21 -36
8 -47 7 -57 -4 -9 -11 -6 -20 11 -43 12 -17 19 -30 16 -30 -3 0 -36 15 -73 34
-59 30 -122 89 -122 113 0 4 34 28 77 53 42 25 110 74 152 110 112 96 155 130
163 130 4 0 26 -7 49 -17z m63 -589 c14 -37 7 -44 -24 -26 -41 23 -38 32 11
41 4 0 10 -6 13 -15z m-1710 -330 c20 -43 30 -54 49 -54 13 0 32 9 42 20 18
20 19 20 57 -52 76 -146 131 -146 194 0 25 59 28 61 38 40 7 -13 22 -24 37
-26 49 -6 189 177 189 246 0 13 4 21 9 18 4 -3 11 -46 13 -97 7 -108 19 -129
66 -110 20 8 43 36 74 89 25 42 49 87 53 100 3 12 10 22 14 22 18 0 35 -195
36 -404 1 -195 3 -221 18 -230 25 -16 44 0 89 74 l40 65 -7 -40 c-7 -45 7 -92
33 -111 44 -32 235 -24 312 14 19 9 42 31 50 47 8 17 16 32 17 34 7 11 31 -23
37 -51 21 -104 -80 -208 -201 -208 -31 0 -51 -9 -148 -66 -70 -40 -319 -124
-332 -111 -2 2 8 24 21 48 29 52 48 121 40 142 -12 32 -58 40 -162 27 -53 -6
-103 -17 -109 -22 -7 -6 -13 -23 -13 -38 0 -29 21 -61 79 -122 19 -21 31 -41
28 -45 -4 -4 -96 -2 -205 5 -292 18 -470 62 -612 150 -195 121 -214 197 -76
301 l58 44 -6 56 c-4 30 -9 65 -12 76 -5 21 -4 21 44 12 l50 -11 7 -105 c8
-137 7 -132 28 -145 12 -8 22 -8 35 0 15 10 17 25 13 128 l-3 116 43 1 c62 1
93 12 97 32 7 37 -14 44 -159 50 -77 3 -142 7 -145 9 -9 10 49 216 78 277 l31
65 23 -103 c13 -56 34 -127 48 -157z m1616 144 c131 -71 126 -66 135 -160 5
-60 23 -130 67 -262 55 -163 60 -185 55 -242 -2 -35 -15 -85 -29 -115 l-25
-54 -8 60 c-14 119 -59 257 -91 281 -21 17 -53 6 -58 -20 -3 -11 -7 -59 -10
-106 -3 -47 -12 -134 -22 -193 -20 -127 -17 -125 -150 -134 l-81 -6 -7 68 c-6
58 -4 70 9 78 77 43 135 140 135 225 0 65 -20 112 -67 153 l-36 31 7 101 c6
94 -1 183 -30 350 l-7 38 69 -26 c38 -14 103 -44 144 -67z m-2015 -287 c6 -27
4 -31 -13 -31 -11 0 -23 7 -26 16 -8 21 -7 156 1 224 7 53 8 51 19 -61 7 -64
15 -131 19 -148z m55 -140 c17 -35 18 -40 4 -52 -26 -21 -54 -86 -54 -123 0
-19 -9 -50 -20 -69 -26 -43 -60 -143 -60 -174 0 -15 -4 -22 -11 -17 -8 4 -10
32 -7 83 5 65 12 90 52 172 26 53 52 123 59 157 6 34 13 62 14 62 1 0 12 -18
23 -39z m128 -414 c40 -26 88 -55 107 -63 31 -13 35 -19 35 -50 l0 -37 -101 5
c-68 3 -105 10 -114 19 -7 8 -16 52 -20 103 -6 73 -5 87 7 80 7 -5 46 -31 86
-57z m972 48 c0 -14 -30 -75 -36 -75 -10 0 -64 52 -64 61 0 7 31 14 78 18 12
0 22 -1 22 -4z m515 -97 c-4 -35 -10 -67 -15 -71 -10 -11 -215 -31 -235 -23
-27 10 -16 32 23 45 45 16 179 89 187 102 4 5 15 9 27 9 19 0 20 -4 13 -62z
m-1097 -95 c89 -17 93 -19 90 -43 -3 -25 -3 -25 -102 -24 -110 2 -126 10 -126
67 0 25 3 29 22 24 12 -4 64 -14 116 -24z m692 -33 c0 -17 -51 -33 -64 -20 -8
8 -7 14 4 20 20 13 60 13 60 0z m-440 -26 c0 -22 -4 -25 -26 -22 -17 2 -30 11
-35 26 -8 20 -5 22 26 22 31 0 35 -3 35 -26z m87 0 c-9 -9 -28 6 -21 18 4 6
10 6 17 -1 6 -6 8 -13 4 -17z m73 6 c0 -11 -7 -20 -15 -20 -8 0 -15 9 -15 20
0 11 7 20 15 20 8 0 15 -9 15 -20z m66 9 c3 -6 1 -16 -5 -22 -9 -9 -14 -8 -21
3 -9 15 -4 30 10 30 5 0 12 -5 16 -11z m102 -6 c-3 -13 -12 -17 -33 -15 -35 4
-39 7 -30 21 3 6 20 11 36 11 24 0 30 -4 27 -17z m136 -81 c27 -20 51 -42 53
-49 11 -31 -247 -67 -327 -46 -28 7 -36 15 -38 36 -4 30 4 33 32 12 28 -21 59
-19 74 5 18 30 48 25 61 -10 8 -24 16 -30 39 -30 34 0 67 32 58 56 -5 12 -15
15 -45 10 l-40 -5 17 29 c23 41 56 39 116 -8z m-214 -21 c-16 -31 -26 -33 -51
-10 -22 18 -22 20 -4 15 11 -3 27 -1 35 4 24 15 32 12 20 -9z m131 -31 c-18
-16 -27 -18 -37 -9 -20 17 -7 29 29 29 l32 -1 -24 -19z m177 -38 c6 -18 -15
-14 -22 4 -4 10 -1 14 6 12 6 -2 14 -10 16 -16z m-38 -6 c0 -21 -21 -31 -31
-15 -5 8 -3 17 4 21 18 12 27 10 27 -6z m-50 -21 c0 -8 -9 -15 -20 -15 -11 0
-20 7 -20 15 0 8 9 15 20 15 11 0 20 -7 20 -15z m-290 -5 c0 -5 -4 -10 -10
-10 -5 0 -10 5 -10 10 0 6 5 10 10 10 6 0 10 -4 10 -10z m49 1 c9 -6 10 -11 2
-15 -13 -8 -31 1 -31 15 0 11 11 11 29 0z m181 -6 c0 -16 -35 -21 -44 -6 -8
12 4 21 26 21 10 0 18 -7 18 -15z m-120 -5 c0 -5 -9 -10 -20 -10 -11 0 -20 5
-20 10 0 6 9 10 20 10 11 0 20 -4 20 -10z m60 0 c0 -5 -9 -10 -20 -10 -11 0
-20 5 -20 10 0 6 9 10 20 10 11 0 20 -4 20 -10z"/>
<path d="M1520 1054 c-52 -7 -125 -13 -161 -13 -48 -1 -70 -5 -80 -17 -21 -25
1 -48 52 -54 l44 -5 2 -100 c4 -130 7 -145 37 -145 42 0 48 19 40 138 l-7 109
44 6 c24 4 69 10 99 13 30 4 63 11 73 16 20 10 22 39 5 56 -14 14 -20 14 -148
-4z"/>
</g>
</svg>
